<svg xmlns="http://www.w3.org/2000/svg" xmlns:xlink="http://www.w3.org/1999/xlink" xmlns:fi="http://pattern.flaticon.com/" x="0" y="0" width="2250" height="1500" viewBox="0 0 2250 1500"><rect x="0px" y="0px" width="100%" height="100%" opacity="1" fill="#f6f6f6"/><defs><g transform="matrix(0.13117476155323296 0.05868344426976193 -0.05868344426976193 0.13117476155323296 282.9794501425757 202.04133889478527)" id="L1_2"><path d="M242.922,312.686h-43.844c-5.523,0-10,4.477-10,10s4.477,10,10,10h43.844c5.523,0,10-4.477,10-10   S248.445,312.686,242.922,312.686z" fill="#046380"/><path d="M441.978,353.323c-0.006-0.139-0.009-0.278-0.021-0.417c-0.024-0.285-0.064-0.564-0.111-0.842   c-0.013-0.078-0.02-0.156-0.036-0.234c-0.074-0.377-0.167-0.747-0.282-1.107c0-0.001-0.001-0.003-0.001-0.005l-21.795-68.314   V70.619c0-20.354-16.559-36.913-36.913-36.913H59.182c-20.354,0-36.914,16.559-36.914,36.913v211.786L0.473,350.718   c0,0.001-0.001,0.003-0.001,0.005c-0.115,0.361-0.208,0.73-0.282,1.107c-0.015,0.078-0.022,0.156-0.036,0.234   c-0.047,0.277-0.087,0.557-0.111,0.842c-0.012,0.139-0.015,0.278-0.021,0.417C0.016,353.468,0,353.611,0,353.758v44.537   c0,5.523,4.477,10,10,10h422c5.523,0,10-4.477,10-10v-44.537C442,353.611,441.984,353.468,441.978,353.323z M399.731,273.961   H42.269v-24.537h357.463V273.961z M39.575,293.961h362.851l15.888,49.797H23.687L39.575,293.961z M59.182,53.706h323.636   c9.326,0,16.913,7.587,16.913,16.913v158.806H42.269V70.619C42.269,61.292,49.856,53.706,59.182,53.706z M422,388.294H20v-24.537   h402V388.294z" fill="#046380"/></g><g transform="matrix(0.14448155493656384 -0.0429539766431884 0.0429539766431884 0.14448155493656384 85.57677111111539 206.56241359608208)" id="L1_3"><path d="M231.122,91.616H34.878C15.646,91.616,0,107.262,0,126.494v115.987c0,19.232,15.646,34.878,34.878,34.878h196.244   c19.231,0,34.878-15.646,34.878-34.878V126.494C266,107.262,250.354,91.616,231.122,91.616z M246,242.481   c0,8.204-6.674,14.878-14.878,14.878H34.878c-8.204,0-14.878-6.674-14.878-14.878V126.494c0-8.204,6.674-14.878,14.878-14.878   h196.244c8.204,0,14.878,6.674,14.878,14.878V242.481z" fill="#004358"/><path d="M200.806,330.381h-22.864l-8.202-35.286c-1.25-5.38-6.622-8.73-12.004-7.476c-5.379,1.25-8.727,6.625-7.476,12.004   l7.149,30.757h-48.818l7.149-30.757c1.25-5.379-2.097-10.754-7.476-12.004c-5.38-1.253-10.754,2.097-12.004,7.476l-8.202,35.286   H65.194c-5.523,0-10,4.477-10,10s4.477,10,10,10h30.772c0.014,0,0.029,0.002,0.043,0.002c0.019,0,0.038-0.002,0.057-0.002h73.868   c0.019,0,0.038,0.002,0.057,0.002c0.014,0,0.029-0.002,0.043-0.002h30.772c5.523,0,10-4.477,10-10S206.329,330.381,200.806,330.381   z" fill="#004358"/><path d="M432,91.616H301.507c-5.522,0-10,4.477-10,10v238.765c0,5.523,4.478,10,10,10H432c5.522,0,10-4.477,10-10V101.616   C442,96.094,437.522,91.616,432,91.616z M422,330.381H311.507V111.616H422V330.381z" fill="#004358"/><path d="M341.507,161.616H392c5.522,0,10-4.477,10-10s-4.478-10-10-10h-50.493c-5.522,0-10,4.477-10,10   S335.984,161.616,341.507,161.616z" fill="#004358"/><path d="M341.507,201.616H392c5.522,0,10-4.477,10-10s-4.478-10-10-10h-50.493c-5.522,0-10,4.477-10,10   S335.984,201.616,341.507,201.616z" fill="#004358"/><path d="M366.753,270.381c-8.271,0-15,6.729-15,15s6.729,15,15,15s15-6.729,15-15S375.024,270.381,366.753,270.381z    M366.753,290.381c-2.757,0-5-2.243-5-5s2.243-5,5-5s5,2.243,5,5S369.51,290.381,366.753,290.381z" fill="#004358"/></g><g transform="matrix(-0.14078144088405758 -0.07359029830751634 -0.07359029830751634 0.14078144088405758 106.37615586635489 308.1507589956017)" id="L1_4"><path d="M434.735,40.381l-140.669-40c-0.049-0.014-0.1-0.018-0.15-0.032c-0.335-0.09-0.676-0.161-1.024-0.216   c-0.104-0.016-0.208-0.034-0.312-0.048c-0.406-0.051-0.817-0.085-1.236-0.086c-0.009,0-0.017,0-0.026,0   c-0.42,0.001-0.83,0.035-1.236,0.086c-0.105,0.013-0.208,0.031-0.312,0.048c-0.348,0.055-0.689,0.126-1.024,0.216   c-0.049,0.013-0.101,0.018-0.15,0.032L150.663,39.604L12.735,0.381C9.721-0.476,6.475,0.13,3.973,2.02C1.471,3.91,0,6.864,0,10v382   c0,4.469,2.966,8.396,7.265,9.619l140.663,40c0.049,0.014,0.1,0.018,0.149,0.031c0.337,0.09,0.68,0.162,1.029,0.217   c0.101,0.016,0.202,0.033,0.304,0.046c0.411,0.052,0.828,0.087,1.253,0.087s0.842-0.035,1.253-0.087   c0.102-0.013,0.202-0.03,0.304-0.046c0.349-0.055,0.693-0.127,1.029-0.217c0.049-0.013,0.1-0.017,0.149-0.031l137.933-39.222   l137.934,39.222c0.9,0.256,1.82,0.381,2.735,0.381c2.151,0,4.272-0.694,6.027-2.021c2.502-1.89,3.973-4.844,3.973-7.979V50   C442,45.531,439.034,41.604,434.735,40.381z M160.663,57.553L281.331,23.24v361.207L160.663,418.76V57.553z M20,23.24   l120.663,34.313V418.76L20,384.447V23.24z M422,418.76l-120.669-34.313V23.24L422,57.553V418.76z"/><path d="M113.397,361.006l-60.662-17.25c-5.315-1.512-10.844,1.572-12.354,6.883c-1.511,5.313,1.571,10.843,6.883,12.354   l60.662,17.25c0.915,0.26,1.835,0.384,2.74,0.384c4.356,0,8.363-2.869,9.614-7.267   C121.792,368.048,118.709,362.517,113.397,361.006z"/><path d="M113.397,311.006l-60.662-17.25c-5.315-1.512-10.844,1.572-12.354,6.883c-1.511,5.313,1.571,10.843,6.883,12.354   l60.662,17.25c0.915,0.26,1.835,0.384,2.74,0.384c4.356,0,8.363-2.869,9.614-7.267   C121.792,318.048,118.709,312.517,113.397,311.006z"/><path d="M113.397,261.006l-60.662-17.25c-5.315-1.51-10.844,1.571-12.354,6.883c-1.511,5.313,1.571,10.843,6.883,12.354   l60.662,17.25c0.915,0.26,1.835,0.384,2.74,0.384c4.356,0,8.363-2.869,9.614-7.267   C121.792,268.048,118.709,262.517,113.397,261.006z"/><path d="M113.397,79.006l-60.662-17.25c-3.017-0.857-6.26-0.251-8.762,1.639C41.471,65.285,40,68.239,40,71.375v132   c0,4.469,2.966,8.396,7.265,9.619l60.662,17.25c0.9,0.256,1.82,0.381,2.735,0.381c2.151,0,4.272-0.694,6.027-2.021   c2.502-1.89,3.973-4.844,3.973-7.979v-132C120.662,84.156,117.696,80.229,113.397,79.006z M100.662,207.385L60,195.822V84.615   l40.662,11.563V207.385z"/><path d="M190.657,98.628c0.905,0,1.826-0.124,2.74-0.384l60.669-17.251c5.312-1.511,8.394-7.042,6.883-12.354   c-1.511-5.312-7.044-8.394-12.354-6.883l-60.669,17.251c-5.312,1.511-8.394,7.042-6.883,12.354   C182.294,95.759,186.3,98.628,190.657,98.628z"/><path d="M248.596,343.756l-60.669,17.251c-5.312,1.511-8.394,7.042-6.883,12.354c1.25,4.398,5.257,7.267,9.614,7.267   c0.905,0,1.826-0.124,2.74-0.384l60.669-17.251c5.312-1.511,8.394-7.042,6.883-12.354   C259.439,345.327,253.906,342.245,248.596,343.756z"/><path d="M248.596,293.756l-60.669,17.251c-5.312,1.511-8.394,7.042-6.883,12.354c1.25,4.398,5.257,7.267,9.614,7.267   c0.905,0,1.826-0.124,2.74-0.384l60.669-17.251c5.312-1.511,8.394-7.042,6.883-12.354   C259.439,295.327,253.906,292.245,248.596,293.756z"/><path d="M248.596,243.756l-60.669,17.251c-5.312,1.511-8.394,7.042-6.883,12.354c1.25,4.398,5.257,7.267,9.614,7.267   c0.905,0,1.826-0.124,2.74-0.384l60.669-17.251c5.312-1.511,8.394-7.042,6.883-12.354   C259.439,245.328,253.906,242.246,248.596,243.756z"/><path d="M248.596,193.756l-60.669,17.251c-5.312,1.511-8.394,7.042-6.883,12.354c1.25,4.398,5.257,7.267,9.614,7.267   c0.905,0,1.826-0.124,2.74-0.384l60.669-17.251c5.312-1.511,8.394-7.042,6.883-12.354   C259.439,195.327,253.906,192.246,248.596,193.756z"/><path d="M328.596,80.993l60.669,17.252c0.915,0.26,1.835,0.384,2.74,0.384c4.356,0,8.363-2.869,9.614-7.267   c1.511-5.313-1.571-10.843-6.883-12.354l-60.669-17.252c-5.314-1.509-10.843,1.572-12.354,6.883   C320.202,73.951,323.284,79.482,328.596,80.993z"/><path d="M328.596,130.993l60.669,17.252c0.915,0.26,1.835,0.384,2.74,0.384c4.356,0,8.363-2.869,9.614-7.267   c1.511-5.313-1.571-10.843-6.883-12.354l-60.669-17.252c-5.314-1.509-10.843,1.572-12.354,6.883   C320.202,123.951,323.284,129.482,328.596,130.993z"/><path d="M328.596,180.993l60.669,17.252c0.915,0.26,1.835,0.384,2.74,0.384c4.356,0,8.363-2.869,9.614-7.267   c1.511-5.313-1.571-10.843-6.883-12.354l-60.669-17.252c-5.314-1.508-10.843,1.572-12.354,6.883   C320.202,173.951,323.284,179.482,328.596,180.993z"/><path d="M328.596,362.993l60.669,17.252c0.9,0.256,1.82,0.381,2.735,0.381c2.151,0,4.272-0.694,6.027-2.021   c2.502-1.89,3.973-4.844,3.973-7.979v-132c0-4.469-2.966-8.396-7.265-9.619l-60.669-17.252c-3.017-0.856-6.26-0.251-8.762,1.639   c-2.502,1.89-3.973,4.844-3.973,7.979v132C321.331,357.843,324.297,361.77,328.596,362.993z M341.331,234.614L382,246.179v111.207   l-40.669-11.564V234.614z"/></g><g transform="matrix(1.5252740384928878 0.5636882120178833 -0.5636882120178833 1.5252740384928878 239.6530411883435 101.48764197973547)" id="L1_5"><path d="M27.91,2H27V1c0-0.553-0.447-1-1-1s-1,0.447-1,1v1h-7V1c0-0.553-0.447-1-1-1c-0.553,0-1,0.447-1,1v1H9V1    c0-0.553-0.447-1-1-1S7,0.447,7,1v1H6.09C3.283,2,1,4.283,1,7.09v21.82C1,31.717,3.283,34,6.09,34h21.82    c2.807,0,5.09-2.283,5.09-5.09V7.09C33,4.283,30.717,2,27.91,2z M31,28.91c0,1.704-1.387,3.09-3.09,3.09H6.09    C4.386,32,3,30.614,3,28.91V12h28V28.91z M31,10H3V7.09C3,5.386,4.386,4,6.09,4H7v3c0,0.553,0.447,1,1,1s1-0.447,1-1V4h7v3    c0,0.553,0.447,1,1,1c0.553,0,1-0.447,1-1V4h7v3c0,0.553,0.447,1,1,1s1-0.447,1-1V4h0.91C29.613,4,31,5.386,31,7.09V10z"/><path d="M12.464,27.27c0.462,0.691,1.063,1.248,1.806,1.668s1.652,0.631,2.73,0.631c0.798,0,1.55-0.118,2.257-0.356    c0.707-0.237,1.33-0.584,1.869-1.039s0.963-1.019,1.271-1.69c0.309-0.672,0.463-1.441,0.463-2.311c0-0.672-0.123-1.299-0.367-1.88    c-0.245-0.58-0.577-1.092-0.997-1.532c-0.42-0.441-0.921-0.787-1.502-1.039c-0.581-0.253-1.207-0.379-1.88-0.379    c-0.7,0-1.354,0.108-1.963,0.325c-0.609,0.218-1.096,0.627-1.46,1.229h-0.042c0.014-0.42,0.081-0.848,0.2-1.28    c0.118-0.435,0.294-0.833,0.524-1.197c0.231-0.364,0.525-0.661,0.882-0.894c0.357-0.23,0.795-0.346,1.312-0.346    c0.154,0,0.322,0.014,0.504,0.041c0.184,0.028,0.357,0.092,0.525,0.189c0.168,0.111,0.315,0.255,0.441,0.431    c0.126,0.175,0.225,0.409,0.294,0.703h3.339c-0.111-0.672-0.318-1.257-0.62-1.754c-0.301-0.496-0.675-0.909-1.123-1.238    c-0.448-0.329-0.959-0.578-1.532-0.746c-0.574-0.168-1.184-0.252-1.828-0.252c-1.104,0-2.062,0.203-2.865,0.609    c-0.804,0.406-1.47,0.955-1.995,1.648c-0.524,0.692-0.913,1.501-1.165,2.425c-0.252,0.925-0.378,1.896-0.378,2.92    c0,0.938,0.101,1.852,0.304,2.74C11.67,25.784,12.002,26.575,12.464,27.27z M14.899,23.457c0.112-0.294,0.27-0.553,0.473-0.777    c0.203-0.224,0.444-0.397,0.725-0.523c0.281-0.126,0.588-0.189,0.924-0.189c0.812,0,1.432,0.238,1.857,0.715    c0.428,0.477,0.641,1.058,0.641,1.742c0,0.294-0.06,0.577-0.179,0.852c-0.118,0.273-0.286,0.515-0.504,0.725    c-0.217,0.21-0.476,0.375-0.776,0.493c-0.302,0.118-0.641,0.179-1.019,0.179c-0.7,0-1.26-0.221-1.681-0.661    c-0.42-0.44-0.63-0.977-0.63-1.605C14.731,24.064,14.787,23.751,14.899,23.457z"/></g><g transform="matrix(1.8320610523223877 0 0 1.8320610523223877 13 108)" id="L1_7"><path d="M29.375,1.25h-1.123c0.029-0.093,0.059-0.186,0.059-0.289C28.311,0.43,27.879,0,27.348,0s-0.961,0.431-0.961,0.961    c0,0.103,0.028,0.196,0.059,0.289h-3.68c0.029-0.093,0.059-0.186,0.059-0.289C22.824,0.43,22.393,0,21.861,0    C21.332,0,20.9,0.431,20.9,0.961c0,0.103,0.029,0.196,0.06,0.289h-3.681c0.029-0.093,0.058-0.186,0.058-0.289    C17.337,0.43,16.907,0,16.376,0c-0.531,0-0.961,0.431-0.961,0.961c0,0.103,0.028,0.196,0.058,0.289h-3.681    c0.029-0.093,0.059-0.186,0.059-0.289C11.851,0.43,11.42,0,10.89,0c-0.531,0-0.962,0.431-0.962,0.961    c0,0.103,0.028,0.196,0.058,0.289h-3.68c0.03-0.093,0.059-0.186,0.059-0.289C6.365,0.43,5.935,0,5.404,0    C4.873,0,4.442,0.431,4.442,0.961c0,0.103,0.028,0.196,0.058,0.289H3.375c-1.518,0-2.75,1.233-2.75,2.75v26    c0,1.518,1.232,2.75,2.75,2.75H26.27l5.855-5.855V4C32.125,2.484,30.893,1.25,29.375,1.25z M30.625,26.273l-0.311,0.311h-2.355    c-1.102,0-2,0.9-2,2v2.355l-0.311,0.311H3.375c-0.689,0-1.25-0.561-1.25-1.25V5h28.5V26.273z" fill="#046380"/><path d="M5.917,20.32c0.057,0.014,0.113,0.02,0.169,0.02c0.355,0,0.676-0.246,0.756-0.607l1.145-5.149    c0.08-0.025,0.171-0.051,0.269-0.08v5.292l-0.617,7.672c-0.042,0.512,0.34,0.961,0.853,1.002c0.025,0.002,0.05,0.004,0.076,0.004    c0.479,0,0.886-0.369,0.926-0.856l0.557-6.935c0.116,0.051,0.242,0.08,0.376,0.08c0.134,0,0.261-0.029,0.375-0.08l0.558,6.935    c0.039,0.487,0.446,0.856,0.926,0.856c0.026,0,0.05-0.002,0.076-0.004c0.513-0.041,0.894-0.49,0.853-1.002l-0.617-7.672v-5.292    c0.394,0.112,0.66,0.207,0.667,0.208c0.003,0.001,0.006,0,0.009,0.002c0.003,0.001,0.006,0.003,0.009,0.005l1.137,0.379v4.174    c0,0.686,0.556,1.242,1.24,1.242h2.258l-1.98,7.393c-0.067,0.248,0.081,0.503,0.329,0.57c0.04,0.01,0.081,0.016,0.121,0.016    c0.205,0,0.394-0.137,0.45-0.346l2.044-7.633h1.585v5.41c0,0.256,0.208,0.465,0.465,0.465c0.258,0,0.465-0.209,0.465-0.465v-5.41    h1.586l2.045,7.633c0.056,0.209,0.244,0.346,0.449,0.346c0.039,0,0.08-0.006,0.121-0.016c0.248-0.067,0.396-0.322,0.328-0.57    l-1.98-7.393h2.259c0.685,0,1.241-0.557,1.241-1.242V11.83c0-0.684-0.557-1.241-1.241-1.241h-4.806V9.658    c0-0.256-0.209-0.465-0.465-0.465c-0.257,0-0.466,0.208-0.466,0.465v0.931h-4.807c-0.684,0-1.24,0.557-1.24,1.241v1.633    l-0.646-0.215c-0.169-0.06-1.673-0.584-3.059-0.652l-0.185,0.369h-0.004l0.522,4.066l-0.621,1.084l-0.62-1.084l0.522-4.066h-0.006    l-0.184-0.369c-1.438,0.07-3.007,0.633-3.078,0.659c-0.026,0.009-0.042,0.029-0.066,0.041c-0.05,0.024-0.098,0.051-0.142,0.086    c-0.038,0.029-0.07,0.06-0.1,0.095c-0.034,0.039-0.063,0.077-0.089,0.122c-0.026,0.044-0.045,0.09-0.062,0.14    c-0.009,0.027-0.028,0.048-0.034,0.077l-1.24,5.581C5.235,19.814,5.498,20.229,5.917,20.32z M15.039,15.304l1.964,0.655    c0.082,0.027,0.164,0.04,0.245,0.04c0.325,0,0.628-0.206,0.734-0.53c0.019-0.055,0.016-0.11,0.021-0.165l4.66-2.156    c0.078-0.036,0.112-0.128,0.075-0.206c-0.036-0.078-0.127-0.112-0.206-0.076l-4.563,2.111c-0.074-0.221-0.238-0.411-0.477-0.49    l-2.455-0.817v-1.84c0-0.342,0.278-0.62,0.62-0.62H26.2c0.342,0,0.62,0.278,0.62,0.62v7.441c0,0.343-0.277,0.621-0.62,0.621    H15.659c-0.342,0-0.62-0.277-0.62-0.621V15.304z" fill="#046380"/><path d="M10.426,12.428c1.082,0,1.96-1.255,1.96-2.337c0-1.083-0.878-1.96-1.96-1.96c-1.083,0-1.961,0.877-1.961,1.96    C8.464,11.172,9.343,12.428,10.426,12.428z" fill="#046380"/></g><path d="M7.999,339.807c-1.002,0-2.02-0.189-3.005-0.589c-4.094-1.661-6.066-6.327-4.405-10.421l22.068-54.39  c9.737-23.989,27.188-55.88,66.151-55.88h29.272c38.964,0,56.415,31.891,66.151,55.879l2.847,7.015l59.311-54.812  c3.246-2.998,8.307-2.799,11.305,0.446c2.999,3.245,2.8,8.306-0.445,11.305l-67.806,62.663c-1.929,1.783-4.613,2.505-7.173,1.932  c-2.563-0.572-4.683-2.366-5.67-4.8l-7.193-17.731c-10.44-25.721-22.345-39.651-38.412-44.202l-21.437,29.376  c-1.506,2.064-3.907,3.284-6.462,3.284s-4.956-1.22-6.462-3.284l-21.315-29.208c-15.774,4.72-27.521,18.624-37.836,44.036  l-22.067,54.389C14.153,337.922,11.159,339.807,7.999,339.807z M93.769,234.527l9.327,12.782l9.327-12.782H93.769z M347.437,314.278  H225.832c-4.418,0-8-3.582-8-8s3.582-8,8-8h113.605V67.944h-15.277v34.983c0,17.262-14.043,31.305-31.305,31.305h-94.697  l-28.867,16.179c-2.478,1.389-5.505,1.36-7.955-0.076c-2.45-1.436-3.956-4.062-3.956-6.902V46.935  c0-17.262,14.044-31.305,31.306-31.305h104.17c17.262,0,31.305,14.043,31.305,31.305v5.009h23.277c4.418,0,8,3.582,8,8v246.334  C355.437,310.697,351.855,314.278,347.437,314.278z M188.685,31.63c-8.439,0-15.306,6.866-15.306,15.305v82.843l18.778-10.524  c1.194-0.67,2.541-1.021,3.911-1.021h96.786c8.439,0,15.305-6.866,15.305-15.305V46.935c0-8.439-6.865-15.305-15.305-15.305H188.685  z M14.341,244.282c-4.418,0-8-3.582-8-8V59.944c0-4.418,3.582-8,8-8h116.104c4.418,0,8,3.582,8,8s-3.582,8-8,8H22.341v168.338  C22.341,240.701,18.759,244.282,14.341,244.282z M103.444,203.937c-24.309,0-44.085-19.776-44.085-44.084  c0-20.014,13.407-36.956,31.712-42.317c0.096-0.031,0.191-0.061,0.288-0.088c3.917-1.115,7.982-1.68,12.083-1.68  c22.133,0,40.57,16.124,43.642,37.811c0.293,2.049,0.445,4.145,0.445,6.274C147.529,184.161,127.753,203.937,103.444,203.937z   M87.934,136.45c-7.573,5.036-12.574,13.646-12.574,23.403c0,15.486,12.599,28.084,28.085,28.084  c13.515,0,24.83-9.593,27.492-22.329c-0.493,0.016-0.985,0.024-1.479,0.024C110.379,165.633,94.045,153.65,87.934,136.45z   M103.271,131.769c4.085,10.565,14.299,17.864,26.187,17.864c0.049,0,0.099,0,0.147,0c-4.096-10.447-14.278-17.864-26.16-17.864  C103.387,131.769,103.328,131.769,103.271,131.769z M269.076,99.02h-63.969c-4.418,0-8-3.582-8-8s3.582-8,8-8h63.969  c4.418,0,8,3.582,8,8S273.494,99.02,269.076,99.02z M249.314,66.842h-44.206c-4.418,0-8-3.582-8-8s3.582-8,8-8h44.206  c4.418,0,8,3.582,8,8S253.732,66.842,249.314,66.842z M129.055,31.632H97.859c-4.418,0-8-3.582-8-8s3.582-8,8-8h31.196  c4.418,0,8,3.582,8,8S133.473,31.632,129.055,31.632z" transform="matrix(0.16224818302079905 -0.06240314991667821 0.06240314991667821 0.16224818302079905 167.07386811227997 315.2420502288099)" id="L1_10" fill="#004358"/><g transform="matrix(0.1047588437795639 0 0 0.1047588437795639 107 58.00000437347694)" id="L1_11"><path d="M415.481,399.788c10.253,0.298,17.52,8.254,24.293,15.059c6.503,6.532,13.26,12.697,21.681,16.631    c11.828,5.523,22.183-12.036,10.286-17.598c-13.868-6.479-22.701-19.054-34.509-27.1c2.121-2.357,4.084-5.047,5.817-8.204    c6.324-11.526-11.272-21.808-17.597-10.286c-3.272,5.965-8.258,9.612-14.182,11.84c-0.05,0.021-0.103,0.037-0.155,0.058    c-16.051,5.94-38.973,1.456-53.962,3.595c-0.074,0.012-0.144,0.028-0.217,0.036c10.682-6.568,22.461-11.827,32.607-16.605    c26.516-12.484,52.493-29.641,60.931-59.335c3.599-12.669-16.062-18.038-19.649-5.419c-3.97,13.966-13.035,24.036-24.234,32.065    c0.313-11.697-0.596-23.439,8.241-32.8c9.013-9.547-5.373-23.982-14.411-14.41c-7.172,7.597-11.819,16.189-13.439,26.564    c-1.591,10.172,2.624,22.318-2.651,31.567c-0.47,0.82-0.779,1.632-1.012,2.432c-9.205,4.459-18.544,8.47-26.904,12.718    c-6.968,3.537-13.835,7.812-20.191,12.726c10.522-32.216,20.058-66.733,48.356-86.66c29.262-20.604,67.76-20.714,93.958-47.062    c9.27-9.327-5.137-23.737-14.411-14.41c-9.314,9.368-20.628,15.504-32.656,20.539c4.501-8.372,6.695-17.862,8.364-27.646    c2.191-12.848-17.446-18.352-19.649-5.418c-2.301,13.493-4.581,25.908-16.801,33.848c-25.215,16.394-48.34,33.362-63.232,60.278    c-5.312,9.601-9.449,19.801-13.174,30.103c-2.705,7.475-10.71,21.975-9.939,29.809c-0.607-6.186-1.473-12.236-2.027-18.197    c-0.008-0.27-0.037-0.538-0.069-0.815c-1.04-11.792-0.714-23.276,5.598-34.896c16.703-30.747,50.914-47.826,51.645-86.61    c0.249-13.15-20.131-13.125-20.375,0c-0.421,22.293-16.528,38.111-31.494,54.497c-0.53-2.195-1.248-4.37-2.239-6.5    c-3.351-7.209-8.34-13.235-10.715-20.906c-2.546-8.226-1.321-17.822-0.779-26.251c0.845-13.125-19.534-13.043-20.375,0    c-0.951,14.745-0.51,28.087,5.365,41.792c2.603,6.075,7.095,10.686,9.094,17.128c1.894,6.104-0.114,13.525-2.366,20.135    c-6.308-4.704-14.027-8.115-22.134-10.204c-29.074-7.495-59.527-10.367-73.681-41.122c-5.488-11.926-23.048-1.567-17.597,10.286    c2.281,4.957,5.116,9.535,8.38,13.745c-1.587-0.089-3.174-0.179-4.761-0.269c-11.6-0.661-18.638-3.391-22.493-15.027    c-5.341-16.12-4.288-31.955-17.005-44.908c-9.217-9.388-23.619,5.026-14.411,14.411c7.454,7.597,8.185,18.715,10.024,28.707    c1.889,10.257,5.908,19.511,13.048,27.144c5.859,6.259,15.39,8.715,23.579,9.482c12.823,1.203,25.741,1.669,38.604,2.366    c2.921,1.534,5.929,2.934,9.009,4.157c10.943,4.342,22.097,6.92,33.656,9.013c9.539,1.73,27.568,5.239,30.583,16.369    c-11.934-0.95-25.663,4.464-36.43,8.735c-8.376,3.325-17.132,5.189-25.949,5.77c-0.958-0.686-2.068-1.266-3.431-1.624    c-7.47-1.979-11.983-7.944-16.919-13.493c-5.945-6.679-12.709-12.224-20.082-17.241c-7.328-4.986-15.834-8.323-24.223-11.037    c-8.246-2.668-18.801-4.165-24.37-11.559c-7.801-10.355-25.508-0.22-17.593,10.286c12.444,16.52,31.338,17.327,48.813,25.802    c6.063,2.941,11.15,7.233,15.949,11.885c-3.566-1.461-7.059-3.104-10.433-4.981c-11.498-6.386-21.771,11.216-10.286,17.593    c18.438,10.241,38.47,15.178,59.552,14.876c10.334-0.147,20.73-2.261,30.571-5.279c7.776-2.383,28.895-15.565,36.557-7.626    c0.298,2.771,0.641,5.553,1.02,8.368c2.285,16.937,2.146,33.627-0.579,50.273c-11.771-12.677-30.302-18.653-47.238-22.994    c-27.042-6.929-57.21-9.331-79.931-27.153c-10.212-8.013-24.741,6.304-14.411,14.411c8.478,6.65,17.523,11.665,27.005,15.639    c-9.176,4.288-17.52,7.042-29.005,4.806c-12.835-2.501-18.307,17.137-5.418,19.649c11.167,2.175,21.689,1.963,32.705-0.963    c5.79-1.538,11.293-4.545,16.353-7.649c6.801-4.17,13.023-4.247,20.767-3.855c1.297,0.064,2.432-0.123,3.472-0.429    c20.506,4.479,59.36,7.858,66.173,31.849c0.465,1.632,1.204,2.954,2.122,4.006l-5.096,132.556h48.396l-5.096-139.246    c0-0.809-0.069-1.567-0.155-2.317c0.702-0.727,1.358-1.567,1.89-2.652c4.459-9.106,10.689-14.708,18.001-18.209    c13.431,3.685,20.502,12.595,30.298,23.109c8.396,9.013,19.779,15.096,31.648,17.939c12.774,3.06,18.192-16.589,5.418-19.649    c-15.418-3.692-23.541-14.015-33.619-25.275c-0.641-0.714-1.351-1.362-2.036-2.036c12.407-0.465,25.243-0.216,36.7-2.885    C414.642,399.686,415.037,399.775,415.481,399.788z" fill="#5c832f"/><path d="M115.969,326.756c-27.356,0-27.356,42.424,0,42.424C143.325,369.176,143.325,326.756,115.969,326.756z" fill="#5c832f"/><path d="M99,280.089c27.356,0,27.356-42.424,0-42.424C71.64,237.669,71.64,280.089,99,280.089z" fill="#5c832f"/><path d="M73.545,288.575c-27.356,0-27.356,42.424,0,42.424S100.901,288.575,73.545,288.575z" fill="#5c832f"/><path d="M196.569,193.124c-27.356,0-27.356,42.424,0,42.424S223.926,193.124,196.569,193.124z" fill="#5c832f"/><path d="M109.604,218.579c27.356,0,27.356-42.424,0-42.424S82.248,218.579,109.604,218.579z" fill="#5c832f"/><path d="M158.389,184.641c27.356,0,27.356-42.424,0-42.424S131.032,184.641,158.389,184.641z" fill="#5c832f"/><path d="M228.385,144.339c-27.356,0-27.356,42.424,0,42.424C255.746,186.763,255.746,144.339,228.385,144.339z" fill="#5c832f"/><path d="M249.597,265.242c27.356,0,27.356-42.424,0-42.424C222.241,222.822,222.241,265.242,249.597,265.242z" fill="#5c832f"/><path d="M287.778,203.731c27.355,0,27.355-42.424,0-42.424C260.421,161.308,260.421,203.731,287.778,203.731z" fill="#5c832f"/><path d="M196.569,95.555c-27.356,0-27.356,42.424,0,42.424S223.926,95.555,196.569,95.555z" fill="#5c832f"/><path d="M270.809,99.793c-27.356,0-27.356,42.424,0,42.424C298.165,142.217,298.165,99.793,270.809,99.793z" fill="#5c832f"/><path d="M118.086,140.096c27.356,0,27.356-42.424,0-42.424S90.73,140.096,118.086,140.096z" fill="#5c832f"/><path d="M45.968,241.912c27.356,0,27.356-42.424,0-42.424S18.612,241.912,45.968,241.912z" fill="#5c832f"/><path d="M62.941,129.492c-27.356,0-27.356,42.424,0,42.424C90.297,171.912,90.297,129.492,62.941,129.492z" fill="#5c832f"/><path d="M209.299,460.384c27.356,0,27.356-42.424,0-42.424C181.938,417.964,181.938,460.384,209.299,460.384z" fill="#5c832f"/><path d="M135.059,477.356c27.356,0,27.356-42.424,0-42.424C107.699,434.933,107.699,477.356,135.059,477.356z" fill="#5c832f"/><path d="M94.757,430.689c27.356,0,27.356-42.424,0-42.424S67.4,430.689,94.757,430.689z" fill="#5c832f"/><path d="M45.968,390.388c27.356,0,27.356-42.424,0-42.424S18.612,390.388,45.968,390.388z" fill="#5c832f"/><path d="M345.049,193.124c27.356,0,27.356-42.424,0-42.424S317.692,193.124,345.049,193.124z" fill="#5c832f"/><path d="M20.517,305.544c27.356,0,27.356-42.424,0-42.424S-6.839,305.544,20.517,305.544z" fill="#5c832f"/><path d="M328.08,95.555c-27.356,0-27.356,42.424,0,42.424C355.437,137.974,355.437,95.555,328.08,95.555z" fill="#5c832f"/><path d="M234.75,95.555c27.356,0,27.356-42.424,0-42.424S207.394,95.555,234.75,95.555z" fill="#5c832f"/><path d="M402.319,114.645c-27.356,0-27.356,42.424,0,42.424C429.676,157.064,429.676,114.645,402.319,114.645z" fill="#5c832f"/><path d="M391.712,214.335c27.356,0,27.356-42.424,0-42.424S364.355,214.335,391.712,214.335z" fill="#5c832f"/><path d="M457.469,197.367c27.356,0,27.356-42.424,0-42.424S430.112,197.367,457.469,197.367z" fill="#5c832f"/><path d="M514.74,280.089c27.356,0,27.356-42.424,0-42.424C487.384,237.669,487.384,280.089,514.74,280.089z" fill="#5c832f"/><path d="M499.893,335.238c27.356,0,27.356-42.424,0-42.424C472.532,292.818,472.532,335.238,499.893,335.238z" fill="#5c832f"/><path d="M478.681,347.968c-27.356,0-27.356,42.424,0,42.424C506.037,390.388,506.037,347.968,478.681,347.968z" fill="#5c832f"/><path d="M544.435,347.968c-27.356,0-27.356,42.424,0,42.424C571.79,390.388,571.79,347.968,544.435,347.968z" fill="#5c832f"/><path d="M552.227,284.332c-27.356,0-27.356,42.424,0,42.424S579.583,284.332,552.227,284.332z" fill="#5c832f"/><path d="M511.19,451.901c27.356,0,27.356-42.424,0-42.424S483.834,451.901,511.19,451.901z" fill="#5c832f"/><path d="M458.162,498.564c27.356,0,27.356-42.424,0-42.424C430.806,456.145,430.806,498.564,458.162,498.564z" fill="#5c832f"/><path d="M518.979,212.214c27.356,0,27.356-42.424,0-42.424C491.623,169.79,491.623,212.214,518.979,212.214z" fill="#5c832f"/><path d="M455.348,89.189c-27.356,0-27.356,42.424,0,42.424S482.704,89.189,455.348,89.189z" fill="#5c832f"/><path d="M387.473,51.009c-27.356,0-27.356,42.424,0,42.424S414.829,51.009,387.473,51.009z" fill="#5c832f"/><path d="M315.354,29.797c-27.356,0-27.356,42.424,0,42.424S342.711,29.797,315.354,29.797z" fill="#5c832f"/><path d="M158.389,38.283c-27.356,0-27.356,42.424,0,42.424S185.745,38.283,158.389,38.283z" fill="#5c832f"/><path d="M263.424,1.902c-27.356,0-27.356,42.424,0,42.424C290.78,44.326,290.78,1.902,263.424,1.902z" fill="#5c832f"/><path d="M518.979,146.46c27.356,0,27.356-42.424,0-42.424C491.623,104.037,491.623,146.46,518.979,146.46z" fill="#5c832f"/></g><g transform="matrix(2.5 0 0 2.5 264 5)" id="L1_12"><path d="m13.5 24h-3c-.7 0-1.5-.6-1.5-1.8v-2.1c0-1-.5-1.9-1.3-2.6-1.8-1.4-2.7-3.4-2.7-5.6.1-3.8 3.2-6.8 6.9-6.9 1.9 0 3.7.7 5 2s2.1 3.1 2.1 5c0 2.1-.9 4.1-2.6 5.4-.9.7-1.4 1.8-1.4 2.8v2.3c0 .8-.7 1.5-1.5 1.5zm-1.5-18c-3.2 0-5.9 2.7-6 5.9 0 1.9.8 3.7 2.3 4.8 1.1.9 1.7 2.1 1.7 3.4v2.1c0 .2 0 .8.5.8h3c.3 0 .5-.2.5-.5v-2.3c0-1.3.7-2.7 1.8-3.6 1.4-1.1 2.2-2.8 2.2-4.6 0-1.6-.6-3.1-1.8-4.3-1.1-1.1-2.6-1.7-4.2-1.7z" fill="#89725b"/><path d="m14.5 21h-5c-.3 0-.5-.2-.5-.5s.2-.5.5-.5h5c.3 0 .5.2.5.5s-.2.5-.5.5z" fill="#89725b"/><path d="m12 3c-.3 0-.5-.2-.5-.5v-2c0-.3.2-.5.5-.5s.5.2.5.5v2c0 .3-.2.5-.5.5z" fill="#89725b"/><path d="m18.7 5.8c-.1 0-.3 0-.4-.1-.2-.2-.2-.5 0-.7l1.4-1.4c.2-.2.5-.2.7 0s.2.5 0 .7l-1.4 1.4s-.2.1-.3.1z" fill="#89725b"/><path d="m23.5 12.5h-2c-.3 0-.5-.2-.5-.5s.2-.5.5-.5h2c.3 0 .5.2.5.5s-.2.5-.5.5z" fill="#89725b"/><path d="m20.1 20.6c-.1 0-.3 0-.4-.1l-1.4-1.4c-.2-.2-.2-.5 0-.7s.5-.2.7 0l1.4 1.4c.2.2.2.5 0 .7 0 .1-.1.1-.3.1z" fill="#89725b"/><path d="m3.9 20.6c-.1 0-.3 0-.4-.1-.2-.2-.2-.5 0-.7l1.4-1.4c.2-.2.5-.2.7 0s.2.5 0 .7l-1.4 1.4c-.1.1-.2.1-.3.1z" fill="#89725b"/><path d="m2.5 12.5h-2c-.3 0-.5-.2-.5-.5s.2-.5.5-.5h2c.3 0 .5.2.5.5s-.2.5-.5.5z" fill="#89725b"/><path d="m5.3 5.8c-.1 0-.3 0-.4-.1l-1.4-1.5c-.2-.2-.2-.5 0-.7s.5-.2.7 0l1.4 1.4c.2.2.2.5 0 .7-.1.1-.2.2-.3.2z" fill="#89725b"/><path d="m16 12.5c-.3 0-.5-.2-.5-.5 0-1.9-1.6-3.5-3.5-3.5-.3 0-.5-.2-.5-.5s.2-.5.5-.5c2.5 0 4.5 2 4.5 4.5 0 .3-.2.5-.5.5z" fill="#89725b"/></g></defs><g fi:class="KUsePattern" opacity="0.11"><pattern id="pattern_L1_2" width="350" height="350" patternUnits="userSpaceOnUse"><use xlink:href="#L1_2" x="-350" y="-350"/><use xlink:href="#L1_2" x="0" y="-350"/><use xlink:href="#L1_2" x="350" y="-350"/><use xlink:href="#L1_2" x="-350" y="0"/><use xlink:href="#L1_2" x="0" y="0"/><use xlink:href="#L1_2" x="350" y="0"/><use xlink:href="#L1_2" x="-350" y="350"/><use xlink:href="#L1_2" x="0" y="350"/><use xlink:href="#L1_2" x="350" y="350"/></pattern><rect x="0" y="0" width="100%" height="100%" fill="url(#pattern_L1_2)"/></g><g fi:class="KUsePattern" opacity="0.14"><pattern id="pattern_L1_3" width="350" height="350" patternUnits="userSpaceOnUse"><use xlink:href="#L1_3" x="-350" y="-350"/><use xlink:href="#L1_3" x="0" y="-350"/><use xlink:href="#L1_3" x="350" y="-350"/><use xlink:href="#L1_3" x="-350" y="0"/><use xlink:href="#L1_3" x="0" y="0"/><use xlink:href="#L1_3" x="350" y="0"/><use xlink:href="#L1_3" x="-350" y="350"/><use xlink:href="#L1_3" x="0" y="350"/><use xlink:href="#L1_3" x="350" y="350"/></pattern><rect x="0" y="0" width="100%" height="100%" fill="url(#pattern_L1_3)"/></g><g fi:class="KUsePattern" opacity="0.07"><pattern id="pattern_L1_4" width="350" height="350" patternUnits="userSpaceOnUse"><use xlink:href="#L1_4" x="-350" y="-350"/><use xlink:href="#L1_4" x="0" y="-350"/><use xlink:href="#L1_4" x="350" y="-350"/><use xlink:href="#L1_4" x="-350" y="0"/><use xlink:href="#L1_4" x="0" y="0"/><use xlink:href="#L1_4" x="350" y="0"/><use xlink:href="#L1_4" x="-350" y="350"/><use xlink:href="#L1_4" x="0" y="350"/><use xlink:href="#L1_4" x="350" y="350"/></pattern><rect x="0" y="0" width="100%" height="100%" fill="url(#pattern_L1_4)"/></g><g fi:class="KUsePattern" opacity="0.06"><pattern id="pattern_L1_5" width="350" height="350" patternUnits="userSpaceOnUse"><use xlink:href="#L1_5" x="-350" y="-350"/><use xlink:href="#L1_5" x="0" y="-350"/><use xlink:href="#L1_5" x="350" y="-350"/><use xlink:href="#L1_5" x="-350" y="0"/><use xlink:href="#L1_5" x="0" y="0"/><use xlink:href="#L1_5" x="350" y="0"/><use xlink:href="#L1_5" x="-350" y="350"/><use xlink:href="#L1_5" x="0" y="350"/><use xlink:href="#L1_5" x="350" y="350"/></pattern><rect x="0" y="0" width="100%" height="100%" fill="url(#pattern_L1_5)"/></g><g fi:class="KUsePattern" opacity="0.13"><pattern id="pattern_L1_7" width="350" height="350" patternUnits="userSpaceOnUse"><use xlink:href="#L1_7" x="-350" y="-350"/><use xlink:href="#L1_7" x="0" y="-350"/><use xlink:href="#L1_7" x="350" y="-350"/><use xlink:href="#L1_7" x="-350" y="0"/><use xlink:href="#L1_7" x="0" y="0"/><use xlink:href="#L1_7" x="350" y="0"/><use xlink:href="#L1_7" x="-350" y="350"/><use xlink:href="#L1_7" x="0" y="350"/><use xlink:href="#L1_7" x="350" y="350"/></pattern><rect x="0" y="0" width="100%" height="100%" fill="url(#pattern_L1_7)"/></g><g fi:class="KUsePattern" opacity="0.15"><pattern id="pattern_L1_10" width="350" height="350" patternUnits="userSpaceOnUse"><use xlink:href="#L1_10" x="-350" y="-350"/><use xlink:href="#L1_10" x="0" y="-350"/><use xlink:href="#L1_10" x="350" y="-350"/><use xlink:href="#L1_10" x="-350" y="0"/><use xlink:href="#L1_10" x="0" y="0"/><use xlink:href="#L1_10" x="350" y="0"/><use xlink:href="#L1_10" x="-350" y="350"/><use xlink:href="#L1_10" x="0" y="350"/><use xlink:href="#L1_10" x="350" y="350"/></pattern><rect x="0" y="0" width="100%" height="100%" fill="url(#pattern_L1_10)"/></g><g fi:class="KUsePattern" opacity="0.17"><pattern id="pattern_L1_11" width="350" height="350" patternUnits="userSpaceOnUse"><use xlink:href="#L1_11" x="-350" y="-350"/><use xlink:href="#L1_11" x="0" y="-350"/><use xlink:href="#L1_11" x="350" y="-350"/><use xlink:href="#L1_11" x="-350" y="0"/><use xlink:href="#L1_11" x="0" y="0"/><use xlink:href="#L1_11" x="350" y="0"/><use xlink:href="#L1_11" x="-350" y="350"/><use xlink:href="#L1_11" x="0" y="350"/><use xlink:href="#L1_11" x="350" y="350"/></pattern><rect x="0" y="0" width="100%" height="100%" fill="url(#pattern_L1_11)"/></g><g fi:class="KUsePattern" opacity="0.14"><pattern id="pattern_L1_12" width="350" height="350" patternUnits="userSpaceOnUse"><use xlink:href="#L1_12" x="-350" y="-350"/><use xlink:href="#L1_12" x="0" y="-350"/><use xlink:href="#L1_12" x="350" y="-350"/><use xlink:href="#L1_12" x="-350" y="0"/><use xlink:href="#L1_12" x="0" y="0"/><use xlink:href="#L1_12" x="350" y="0"/><use xlink:href="#L1_12" x="-350" y="350"/><use xlink:href="#L1_12" x="0" y="350"/><use xlink:href="#L1_12" x="350" y="350"/></pattern><rect x="0" y="0" width="100%" height="100%" fill="url(#pattern_L1_12)"/></g></svg>